<?xml version="1.0" encoding="UTF-8"?>
<svg id="Warstwa_2" data-name="Warstwa 2" xmlns="http://www.w3.org/2000/svg" viewBox="0 0 1008.27 1384.06">
  <defs>
    <style>
      .cls-1 {
        fill: #fff;
        stroke: #000;
        stroke-width: .75px;
      }

      .cls-1, .cls-2, .cls-3 {
        stroke-miterlimit: 10;
      }

      .cls-2 {
        fill: #f9b03a;
      }

      .cls-2, .cls-3 {
        stroke: #fff;
        stroke-width: 10px;
      }

      .cls-3 {
        fill: #e62b29;
      }
    </style>
  </defs>
  <g id="Livello_1" data-name="Livello 1">
    <g>
      <path class="cls-3" d="M1003.27,504.13c0,142.39-59.63,270.86-155.28,361.79,0,0-.08.08-.25.24-9.33,9.29-277.85,278.15-333.55,499.04,0,0,0,.01,0,.02-8.93,30.49-19.65,1.27-20.09.04,0-.03-.01-.04-.01-.04-56.18-222.86-329-494.53-333.73-499.23-.02-.02-.03-.03-.05-.05-.01,0-.02-.02-.02-.02C64.63,774.99,5,646.52,5,504.13,5,228.47,228.47,5,504.13,5s499.13,223.47,499.13,499.13Z"/>
      <g>
        <path class="cls-1" d="M616.84,298.76c-2.41,2.41-2.11,7.55.6,9.96,1.81,1.81,13.28,2.11,105.63,2.11,98.39,0,103.52,0,105.63-2.41,2.72-3.02,3.02-7.24.6-9.66-2.11-2.41-210.06-2.41-212.48,0Z"/>
        <path class="cls-1" d="M288.77,312.94c-2.11.91-10.26,4.23-17.81,7.24l-13.58,5.13v18.71l-19.32-.6-19.01-.6.91,9.66.6,9.66-2.11-7.24c-1.21-3.92-2.72-7.24-3.62-7.24s-8.45,2.11-17.2,5.13l-15.69,4.83,2.72,12.07c1.51,6.64,4.53,19.92,6.64,29.58,3.62,16,3.62,17.51,1.81,19.92-1.21,1.51-2.72,2.41-3.32,2.41s-2.41-6.34-4.23-13.88-3.62-13.88-4.23-13.88c-2.41,0-34.71,22.33-34.71,24.15,0,.91,2.11,11.47,5.13,23.54l5.13,21.73-6.64,14.19c-6.64,13.88-6.64,14.49-4.83,19.92,2.72,8.15,2.41,8.45-3.02,9.05-4.23.6-4.83,1.21-4.53,4.23.6,6.34,47.99,229.08,48.89,230.28.3.3,5.43,0,10.56-.91,24.75-4.83,48.89-6.94,84.51-6.94,23.54,0,35.31-.3,34.71-1.51-.3-.91-3.02-4.23-6.04-7.55-9.36-11.77-20.52-33.8-24.75-50.4-1.51-5.13-3.62-7.85-10.26-13.58-7.24-6.34-9.05-7.24-14.49-7.24-7.24,0-34.1-3.62-38.33-5.43-2.72-1.21-3.62-3.62-6.94-20.52-2.11-10.87-4.23-20.83-4.53-22.33-.6-2.11,0-3.32,1.81-3.62,3.02-.91,24.45-4.53,35.01-5.73,5.13-.6,7.55-1.81,8.15-3.32,2.72-8.15,9.05-19.92,13.58-24.75,9.36-10.56,27.46-17.81,47.38-19.32,9.66-.6,13.28-1.81,23.84-6.94,19.32-9.36,25.35-10.56,56.14-11.17l26.86-.6,1.51-7.85c.91-4.23,1.81-9.05,2.11-10.26.6-2.41-.91-3.32-10.87-4.83-3.62-.3-6.64-1.21-6.64-1.51s1.81-4.23,4.23-9.05c2.41-4.53,4.23-9.05,4.23-10.56,0-1.21-1.81-6.04-4.53-11.17l-4.53-9.05,6.04-24.75,6.04-24.75-14.49-20.22c-8.15-10.87-15.09-19.92-15.39-19.92s-1.81,6.04-3.62,13.28-3.62,13.28-3.92,13.28c-.6,0-2.11-1.51-3.62-3.32-2.72-3.02-3.02-3.32-.91-28.07,1.21-13.58,1.81-25.05,1.51-25.35-.91-.91-33.5-12.98-33.8-12.68-.3.3-2.41,16-5.13,35.31-3.92,30.78-4.53,33.5-5.13,24.75-.3-5.43,0-24.15.91-41.65.91-17.51,1.21-31.99.91-32.29-.3-.3-8.45,1.81-18.11,4.23-11.77,3.32-18.11,5.43-18.11,6.94,0,1.21-.6,6.34-1.21,11.77l-1.51,9.36-1.81-17.51c-.91-9.66-1.81-18.41-1.81-19.92,0-2.72-1.81-2.72-7.55-.3ZM286.96,333.77c2.41,22.64,5.13,55.84,4.53,56.44-.3.3-.91-1.21-.91-3.32s-.6-5.43-.91-7.24c-.91-3.02-1.21-3.02-9.66,2.41l-8.75,5.73-.6-3.92c-.3-2.11-1.21-14.49-1.51-27.46l-.91-23.84,8.15-3.02c4.53-1.81,8.45-3.02,9.05-3.02s1.21,3.32,1.51,7.24ZM325.59,383.57c-.91,21.73-1.51,42.56-1.51,45.88v6.04l-6.64-.91-6.34-.91.91,23.54c.3,12.68,1.21,31.09,1.51,40.74l.6,17.51-5.43-32.6-5.73-32.6,4.53-53.42c2.41-28.97,4.83-54.63,5.43-57.04.91-3.62,1.81-4.23,7.24-5.43l6.04-1.51.3,5.43c.3,3.02,0,23.24-.91,45.27ZM363.62,350.07c5.73,2.41,6.34,3.02,5.73,6.64-.3,2.11-.91,9.36-1.51,16.3l-.91,12.37-6.94-6.64-6.94-6.94.91-9.66c.91-9.66,1.81-14.49,2.72-14.49.6-.3,3.62.91,6.94,2.41ZM256.48,355.8c.3.3,1.21,9.36,1.81,19.92l.91,19.32-7.24,4.53c-4.23,2.72-7.24,5.43-6.94,6.94,0,1.51,5.13,32.6,11.47,69.42,6.34,36.82,11.47,67,11.17,67.3s-17.2-2.41-17.51-3.02c0,0-4.23-41.95-9.36-93.26l-9.36-92.96,12.37.6c6.64.3,12.37.91,12.68,1.21ZM212.42,378.44l3.32,16.3-4.23,5.43c-2.41,3.02-4.83,5.43-5.43,5.43-.91,0-9.96-37.73-9.96-40.74,0-1.21,8.15-3.62,11.17-3.62,1.21.6,2.72,5.43,5.13,17.2ZM369.06,403.49l4.23,5.43-10.87,58.55-11.17,58.25-5.13,2.72c-3.02,1.51-5.43,2.72-6.04,2.72-.3,0-.3-9.05,0-19.92.6-14.79,2.72-30.78,9.05-65.8,10.56-58.85,9.05-53.12,12.68-50.1,1.81,1.81,4.83,5.13,7.24,8.15ZM294.81,471.09c6.94,38.63,12.68,70.32,12.68,70.62,0,1.81-9.96,3.62-17.51,3.62-8.15,0-9.05-.3-9.66-3.32-1.81-8.15-22.94-127.67-22.94-130.08,0-1.81,3.62-4.83,11.47-9.96,10.87-6.94,11.47-7.24,12.37-4.23.6,1.81,6.64,34.71,13.58,73.34ZM403.76,408.92l6.64,8.75-3.92,15.39-3.92,15.09-2.72-6.34-2.72-6.34-5.13,9.05c-2.72,5.13-5.13,8.45-5.13,7.55,0-4.53,9.36-52.21,10.26-52.21.3.3,3.32,4.23,6.64,9.05ZM336.16,407.41c-.3,1.21-.91.6-.91-.91s.3-2.41.6-1.81c.6.6.91,1.81.3,2.72ZM178.31,420.69c1.81,7.55,1.81,10.87.91,12.68-1.21,1.81.3,8.45,7.24,30.18,4.83,15.09,8.45,27.77,8.15,28.07-.3.3-6.34-10.26-13.88-23.54-7.55-13.28-14.19-23.84-14.79-23.54-.6,0-2.41-4.83-3.62-11.17-1.51-6.34-2.72-12.07-3.02-12.98-.6-1.81,15.09-12.07,16.3-10.56,0,.3,1.51,5.43,2.72,10.87ZM222.98,475.02c5.73,32.29,10.56,58.85,10.56,59.46s-2.11,0-4.53-1.21c-4.53-2.11-5.43-4.23-22.33-48.29l-17.51-46.18,11.17-11.47c6.34-6.34,11.47-11.17,11.77-11.17s5.13,26.26,10.87,58.85ZM331.63,469.28c0,10.87-.6,30.48-1.21,43.46-.91,22.33-1.21,24.15-3.62,24.15-2.11,0-2.72-.91-2.72-5.43,0-2.72-.91-20.83-2.11-39.84-2.72-48.29-3.32-43.46,3.92-42.56l5.73.91v19.32ZM402.86,472l5.43,12.07-4.83,9.05c-3.92,7.24-5.43,8.75-7.55,8.15-1.51-.3-6.34-1.21-10.56-1.51q-7.85-.91-10.87,3.62c-1.51,2.41-4.83,6.34-7.24,8.75-4.23,3.62-4.53,3.92-2.41.6,1.21-1.81,8.75-14.79,16.3-28.97,7.85-14.19,14.79-25.35,15.39-25.05.6.91,3.32,6.64,6.34,13.28ZM177.1,481.96c5.13,9.05,9.05,16.3,8.75,16.6s-5.73,1.51-12.68,2.41l-12.07,1.81-3.02-5.13c-1.81-2.72-3.02-5.73-3.02-6.34,0-1.81,10.87-25.35,11.77-25.35.91-.3,5.13,6.94,10.26,16Z"/>
        <path class="cls-1" d="M617.45,323.81c-9.36,9.05-15.69,18.41-19.01,29.28-2.41,7.85-2.72,13.88-2.72,92.05v83.3h49.2c51.61,0,58.55.6,74.85,6.94,4.23,1.81,11.77,5.43,16.9,8.45,8.75,5.43,9.66,5.43,21.43,5.43,6.64,0,14.79.6,18.11,1.21l6.04,1.21-.3-96.28-.3-96.28-3.32-7.85c-3.62-9.36-11.77-22.03-18.71-29.58l-4.83-5.13h-130.08l-7.24,7.24Z"/>
        <path class="cls-1" d="M765.64,317.47c0,.3,2.72,3.92,6.04,8.15,3.32,3.92,7.55,10.87,9.66,15.09,7.85,16.6,7.85,15.69,7.85,118.61v94.77l7.55,4.53,7.55,4.23v-99.6c0-99.6,0-99.9-3.32-108.95-3.62-10.56-10.56-22.64-18.11-31.39-4.83-5.43-6.04-6.04-11.47-6.04-2.72-.3-5.73,0-5.73.6Z"/>
        <path class="cls-1" d="M801.55,318.37c.6.91,2.11,3.62,3.62,5.43,3.62,5.13,11.77,21.73,13.88,28.37,1.51,4.23,2.11,30.48,2.72,119.82l.6,114.39,3.32,8.45c4.83,12.07,4.83,30.78-.3,45.27-3.32,9.66-3.62,12.68-3.92,38.33-.3,26.26-.6,28.37-4.23,36.52l-3.62,8.75h8.75c7.55,0,9.05-.6,15.39-5.43,3.62-3.02,8.45-7.24,9.96-9.96l3.32-4.83v-169.02c0-118.31-.3-171.13-1.51-176.26-2.41-11.47-10.26-25.05-19.32-33.8l-8.15-7.85h-10.56c-8.45,0-10.87.6-9.96,1.81Z"/>
        <path class="cls-1" d="M370.56,544.43c-9.66,2.11-19.32,6.04-28.37,11.77-5.43,3.62-8.15,4.23-22.03,5.13-19.01,1.21-27.77,3.62-34.41,9.36-11.47,9.96-16.6,23.84-15.69,42.56.6,9.36,1.51,13.58,4.53,19.32,4.53,9.05,12.07,17.51,19.01,21.43,3.02,1.81,5.43,3.92,5.43,5.43,0,5.13,7.24,25.96,12.98,36.82,8.45,16.3,26.56,34.41,42.86,42.25,21.73,10.87,9.66,10.26,191.05,9.66l162.07-.3,9.96-3.62c13.28-4.83,27.77-14.79,37.42-25.35,9.05-9.96,18.71-28.37,22.33-42.25,2.41-9.36,2.72-9.66,8.45-12.07,19.62-8.15,32.6-34.1,28.67-56.44-3.32-17.81-14.49-32.9-29.88-39.84-7.55-3.62-10.87-3.92-26.86-4.83-17.81-.91-18.11-.91-24.75-5.43-8.45-6.04-19.92-10.87-30.78-13.58-12.07-3.02-318.71-3.02-331.99,0ZM366.04,567.37c2.72.6,8.75,3.62,12.98,6.34,7.55,4.53,8.75,4.83,20.52,4.83,10.87,0,12.98-.3,17.81-3.62,15.69-10.26,38.03-10.26,54.93,0,4.53,3.02,6.94,3.32,19.62,3.32s14.79-.3,22.33-4.23c14.49-7.85,30.18-7.85,46.48,0,7.24,3.62,10.87,4.23,23.54,5.13l14.79.91,8.75-4.83c8.15-4.53,9.66-4.83,22.03-4.83s14.19.3,22.33,4.53c9.05,4.53,9.96,4.53,25.96,4.53,14.79,0,17.51-.3,24.15-3.62,13.58-6.04,25.35-5.73,31.09.6,2.11,2.41,4.53,2.72,18.71,2.72,18.11,0,25.35,1.51,31.99,6.64,11.77,9.05,17.2,22.94,14.49,38.33-1.81,10.87-7.24,18.71-15.39,22.94-5.43,3.02-8.15,3.32-28.07,3.32h-22.03l-8.15-8.15c-5.43-5.73-10.56-9.05-16.3-11.47l-8.45-3.32-186.52-.3c-133.4-.3-188.33,0-192.25,1.21-3.62.91-7.85,3.62-11.17,6.94l-5.43,5.43-4.53-3.62c-8.75-6.64-12.98-15.69-12.98-27.46,0-10.26,2.72-17.51,9.05-24.15,6.64-6.94,12.68-9.05,27.46-9.05q10.87,0,16.3-5.43c5.13-5.43,5.73-5.43,13.58-5.43,3.62.3,9.66,1.21,12.37,1.81Z"/>
        <path class="cls-1" d="M342.5,576.12c-3.62,3.62-3.92,9.05-1.21,12.68.91,1.21,6.34,3.92,11.77,5.73,5.43,1.81,12.68,5.43,16,8.15,8.15,6.64,13.28,9.05,22.94,10.56,14.49,2.11,25.35-.6,38.03-10.56,12.68-9.36,17.51-9.05,33.5,2.72,10.87,8.15,16.6,9.96,29.58,9.96,11.47,0,20.52-3.32,29.28-10.26,11.77-9.36,17.2-9.66,30.18-.6,12.37,8.45,19.32,11.47,29.28,12.37,11.47,1.21,21.43-1.81,33.2-10.87,9.05-6.64,9.96-6.94,16.3-6.34,5.13.3,8.45,1.81,14.19,6.34,20.22,15.69,43.16,16.9,60.36,3.32,8.15-6.64,10.87-7.85,16.9-9.05,10.56-1.81,13.58-11.47,5.43-18.11-7.24-6.34-19.92-3.62-36.52,7.85-12.68,8.75-17.2,8.75-28.67.3-12.68-9.36-19.32-12.37-29.58-12.98-11.47-.91-22.33,2.11-30.78,8.45-14.79,11.17-19.92,11.77-32.6,3.32-16.9-11.77-19.62-12.68-34.41-12.68s-17.2.91-30.48,10.87c-6.34,4.83-8.75,5.73-14.19,5.73s-7.55-.91-16.3-7.55c-11.47-8.45-19.32-11.17-31.39-11.17-11.17,0-17.51,1.81-25.35,7.55-3.62,2.72-8.15,6.04-10.26,7.24-6.34,4.53-13.58,3.32-24.15-4.23-12.98-9.36-19.62-12.07-29.58-12.07-7.24.3-9.05.6-11.47,3.32Z"/>
        <path class="cls-1" d="M796.72,674.82c-3.32,2.41-6.04,4.23-6.04,4.53,0,0-.6,6.64-1.21,14.49-.91,11.17-2.11,16-4.83,21.43-1.81,3.62-3.62,7.24-3.62,7.55s2.41.6,5.43.6c4.53,0,6.04-.91,9.96-5.43,6.04-7.24,8.45-16.3,8.45-33.2,0-7.85-.3-14.49-.91-14.49-.91.3-3.92,2.11-7.24,4.53Z"/>
        <path class="cls-1" d="M760.2,733.97l-6.34,6.34,26.56-.6c19.01-.3,27.46-.91,29.88-2.41,4.23-2.41,9.66-7.24,9.66-8.75,0-.6-12.07-1.21-26.86-1.21h-26.86l-6.04,6.64Z"/>
      </g>
    </g>
    <g>
      <path class="cls-2" d="M1003.27,504.13c0,142.39-59.63,270.86-155.28,361.79,0,0-.08.08-.25.24-9.33,9.29-277.85,278.15-333.55,499.04,0,0,0,.01,0,.02-8.93,30.49-19.65,1.27-20.09.04,0-.03-.01-.04-.01-.04-56.18-222.86-329-494.53-333.73-499.23-.02-.02-.03-.03-.05-.05-.01,0-.02-.02-.02-.02C64.63,774.99,5,646.52,5,504.13,5,228.47,228.47,5,504.13,5s499.13,223.47,499.13,499.13Z"/>
      <g>
        <path class="cls-1" d="M616.84,298.76c-2.41,2.41-2.11,7.55.6,9.96,1.81,1.81,13.28,2.11,105.63,2.11,98.39,0,103.52,0,105.63-2.41,2.72-3.02,3.02-7.24.6-9.66-2.11-2.41-210.06-2.41-212.48,0Z"/>
        <path class="cls-1" d="M288.77,312.94c-2.11.91-10.26,4.23-17.81,7.24l-13.58,5.13v18.71l-19.32-.6-19.01-.6.91,9.66.6,9.66-2.11-7.24c-1.21-3.92-2.72-7.24-3.62-7.24s-8.45,2.11-17.2,5.13l-15.69,4.83,2.72,12.07c1.51,6.64,4.53,19.92,6.64,29.58,3.62,16,3.62,17.51,1.81,19.92-1.21,1.51-2.72,2.41-3.32,2.41s-2.41-6.34-4.23-13.88-3.62-13.88-4.23-13.88c-2.41,0-34.71,22.33-34.71,24.15,0,.91,2.11,11.47,5.13,23.54l5.13,21.73-6.64,14.19c-6.64,13.88-6.64,14.49-4.83,19.92,2.72,8.15,2.41,8.45-3.02,9.05-4.23.6-4.83,1.21-4.53,4.23.6,6.34,47.99,229.08,48.89,230.28.3.3,5.43,0,10.56-.91,24.75-4.83,48.89-6.94,84.51-6.94,23.54,0,35.31-.3,34.71-1.51-.3-.91-3.02-4.23-6.04-7.55-9.36-11.77-20.52-33.8-24.75-50.4-1.51-5.13-3.62-7.85-10.26-13.58-7.24-6.34-9.05-7.24-14.49-7.24-7.24,0-34.1-3.62-38.33-5.43-2.72-1.21-3.62-3.62-6.94-20.52-2.11-10.87-4.23-20.83-4.53-22.33-.6-2.11,0-3.32,1.81-3.62,3.02-.91,24.45-4.53,35.01-5.73,5.13-.6,7.55-1.81,8.15-3.32,2.72-8.15,9.05-19.92,13.58-24.75,9.36-10.56,27.46-17.81,47.38-19.32,9.66-.6,13.28-1.81,23.84-6.94,19.32-9.36,25.35-10.56,56.14-11.17l26.86-.6,1.51-7.85c.91-4.23,1.81-9.05,2.11-10.26.6-2.41-.91-3.32-10.87-4.83-3.62-.3-6.64-1.21-6.64-1.51s1.81-4.23,4.23-9.05c2.41-4.53,4.23-9.05,4.23-10.56,0-1.21-1.81-6.04-4.53-11.17l-4.53-9.05,6.04-24.75,6.04-24.75-14.49-20.22c-8.15-10.87-15.09-19.92-15.39-19.92s-1.81,6.04-3.62,13.28-3.62,13.28-3.92,13.28c-.6,0-2.11-1.51-3.62-3.32-2.72-3.02-3.02-3.32-.91-28.07,1.21-13.58,1.81-25.05,1.51-25.35-.91-.91-33.5-12.98-33.8-12.68-.3.3-2.41,16-5.13,35.31-3.92,30.78-4.53,33.5-5.13,24.75-.3-5.43,0-24.15.91-41.65.91-17.51,1.21-31.99.91-32.29-.3-.3-8.45,1.81-18.11,4.23-11.77,3.32-18.11,5.43-18.11,6.94,0,1.21-.6,6.34-1.21,11.77l-1.51,9.36-1.81-17.51c-.91-9.66-1.81-18.41-1.81-19.92,0-2.72-1.81-2.72-7.55-.3ZM286.96,333.77c2.41,22.64,5.13,55.84,4.53,56.44-.3.3-.91-1.21-.91-3.32s-.6-5.43-.91-7.24c-.91-3.02-1.21-3.02-9.66,2.41l-8.75,5.73-.6-3.92c-.3-2.11-1.21-14.49-1.51-27.46l-.91-23.84,8.15-3.02c4.53-1.81,8.45-3.02,9.05-3.02s1.21,3.32,1.51,7.24ZM325.59,383.57c-.91,21.73-1.51,42.56-1.51,45.88v6.04l-6.64-.91-6.34-.91.91,23.54c.3,12.68,1.21,31.09,1.51,40.74l.6,17.51-5.43-32.6-5.73-32.6,4.53-53.42c2.41-28.97,4.83-54.63,5.43-57.04.91-3.62,1.81-4.23,7.24-5.43l6.04-1.51.3,5.43c.3,3.02,0,23.24-.91,45.27ZM363.62,350.07c5.73,2.41,6.34,3.02,5.73,6.64-.3,2.11-.91,9.36-1.51,16.3l-.91,12.37-6.94-6.64-6.94-6.94.91-9.66c.91-9.66,1.81-14.49,2.72-14.49.6-.3,3.62.91,6.94,2.41ZM256.48,355.8c.3.3,1.21,9.36,1.81,19.92l.91,19.32-7.24,4.53c-4.23,2.72-7.24,5.43-6.94,6.94,0,1.51,5.13,32.6,11.47,69.42,6.34,36.82,11.47,67,11.17,67.3s-17.2-2.41-17.51-3.02c0,0-4.23-41.95-9.36-93.26l-9.36-92.96,12.37.6c6.64.3,12.37.91,12.68,1.21ZM212.42,378.44l3.32,16.3-4.23,5.43c-2.41,3.02-4.83,5.43-5.43,5.43-.91,0-9.96-37.73-9.96-40.74,0-1.21,8.15-3.62,11.17-3.62,1.21.6,2.72,5.43,5.13,17.2ZM369.06,403.49l4.23,5.43-10.87,58.55-11.17,58.25-5.13,2.72c-3.02,1.51-5.43,2.72-6.04,2.72-.3,0-.3-9.05,0-19.92.6-14.79,2.72-30.78,9.05-65.8,10.56-58.85,9.05-53.12,12.68-50.1,1.81,1.81,4.83,5.13,7.24,8.15ZM294.81,471.09c6.94,38.63,12.68,70.32,12.68,70.62,0,1.81-9.96,3.62-17.51,3.62-8.15,0-9.05-.3-9.66-3.32-1.81-8.15-22.94-127.67-22.94-130.08,0-1.81,3.62-4.83,11.47-9.96,10.87-6.94,11.47-7.24,12.37-4.23.6,1.81,6.64,34.71,13.58,73.34ZM403.76,408.92l6.64,8.75-3.92,15.39-3.92,15.09-2.72-6.34-2.72-6.34-5.13,9.05c-2.72,5.13-5.13,8.45-5.13,7.55,0-4.53,9.36-52.21,10.26-52.21.3.3,3.32,4.23,6.64,9.05ZM336.16,407.41c-.3,1.21-.91.6-.91-.91s.3-2.41.6-1.81c.6.6.91,1.81.3,2.72ZM178.31,420.69c1.81,7.55,1.81,10.87.91,12.68-1.21,1.81.3,8.45,7.24,30.18,4.83,15.09,8.45,27.77,8.15,28.07-.3.3-6.34-10.26-13.88-23.54-7.55-13.28-14.19-23.84-14.79-23.54-.6,0-2.41-4.83-3.62-11.17-1.51-6.34-2.72-12.07-3.02-12.98-.6-1.81,15.09-12.07,16.3-10.56,0,.3,1.51,5.43,2.72,10.87ZM222.98,475.02c5.73,32.29,10.56,58.85,10.56,59.46s-2.11,0-4.53-1.21c-4.53-2.11-5.43-4.23-22.33-48.29l-17.51-46.18,11.17-11.47c6.34-6.34,11.47-11.17,11.77-11.17s5.13,26.26,10.87,58.85ZM331.63,469.28c0,10.87-.6,30.48-1.21,43.46-.91,22.33-1.21,24.15-3.62,24.15-2.11,0-2.72-.91-2.72-5.43,0-2.72-.91-20.83-2.11-39.84-2.72-48.29-3.32-43.46,3.92-42.56l5.73.91v19.32ZM402.86,472l5.43,12.07-4.83,9.05c-3.92,7.24-5.43,8.75-7.55,8.15-1.51-.3-6.34-1.21-10.56-1.51q-7.85-.91-10.87,3.62c-1.51,2.41-4.83,6.34-7.24,8.75-4.23,3.62-4.53,3.92-2.41.6,1.21-1.81,8.75-14.79,16.3-28.97,7.85-14.19,14.79-25.35,15.39-25.05.6.91,3.32,6.64,6.34,13.28ZM177.1,481.96c5.13,9.05,9.05,16.3,8.75,16.6s-5.73,1.51-12.68,2.41l-12.07,1.81-3.02-5.13c-1.81-2.72-3.02-5.73-3.02-6.34,0-1.81,10.87-25.35,11.77-25.35.91-.3,5.13,6.94,10.26,16Z"/>
        <path class="cls-1" d="M617.45,323.81c-9.36,9.05-15.69,18.41-19.01,29.28-2.41,7.85-2.72,13.88-2.72,92.05v83.3h49.2c51.61,0,58.55.6,74.85,6.94,4.23,1.81,11.77,5.43,16.9,8.45,8.75,5.43,9.66,5.43,21.43,5.43,6.64,0,14.79.6,18.11,1.21l6.04,1.21-.3-96.28-.3-96.28-3.32-7.85c-3.62-9.36-11.77-22.03-18.71-29.58l-4.83-5.13h-130.08l-7.24,7.24Z"/>
        <path class="cls-1" d="M765.64,317.47c0,.3,2.72,3.92,6.04,8.15,3.32,3.92,7.55,10.87,9.66,15.09,7.85,16.6,7.85,15.69,7.85,118.61v94.77l7.55,4.53,7.55,4.23v-99.6c0-99.6,0-99.9-3.32-108.95-3.62-10.56-10.56-22.64-18.11-31.39-4.83-5.43-6.04-6.04-11.47-6.04-2.72-.3-5.73,0-5.73.6Z"/>
        <path class="cls-1" d="M801.55,318.37c.6.91,2.11,3.62,3.62,5.43,3.62,5.13,11.77,21.73,13.88,28.37,1.51,4.23,2.11,30.48,2.72,119.82l.6,114.39,3.32,8.45c4.83,12.07,4.83,30.78-.3,45.27-3.32,9.66-3.62,12.68-3.92,38.33-.3,26.26-.6,28.37-4.23,36.52l-3.62,8.75h8.75c7.55,0,9.05-.6,15.39-5.43,3.62-3.02,8.45-7.24,9.96-9.96l3.32-4.83v-169.02c0-118.31-.3-171.13-1.51-176.26-2.41-11.47-10.26-25.05-19.32-33.8l-8.15-7.85h-10.56c-8.45,0-10.87.6-9.96,1.81Z"/>
        <path class="cls-1" d="M370.56,544.43c-9.66,2.11-19.32,6.04-28.37,11.77-5.43,3.62-8.15,4.23-22.03,5.13-19.01,1.21-27.77,3.62-34.41,9.36-11.47,9.96-16.6,23.84-15.69,42.56.6,9.36,1.51,13.58,4.53,19.32,4.53,9.05,12.07,17.51,19.01,21.43,3.02,1.81,5.43,3.92,5.43,5.43,0,5.13,7.24,25.96,12.98,36.82,8.45,16.3,26.56,34.41,42.86,42.25,21.73,10.87,9.66,10.26,191.05,9.66l162.07-.3,9.96-3.62c13.28-4.83,27.77-14.79,37.42-25.35,9.05-9.96,18.71-28.37,22.33-42.25,2.41-9.36,2.72-9.66,8.45-12.07,19.62-8.15,32.6-34.1,28.67-56.44-3.32-17.81-14.49-32.9-29.88-39.84-7.55-3.62-10.87-3.92-26.86-4.83-17.81-.91-18.11-.91-24.75-5.43-8.45-6.04-19.92-10.87-30.78-13.58-12.07-3.02-318.71-3.02-331.99,0ZM366.04,567.37c2.72.6,8.75,3.62,12.98,6.34,7.55,4.53,8.75,4.83,20.52,4.83,10.87,0,12.98-.3,17.81-3.62,15.69-10.26,38.03-10.26,54.93,0,4.53,3.02,6.94,3.32,19.62,3.32s14.79-.3,22.33-4.23c14.49-7.85,30.18-7.85,46.48,0,7.24,3.62,10.87,4.23,23.54,5.13l14.79.91,8.75-4.83c8.15-4.53,9.66-4.83,22.03-4.83s14.19.3,22.33,4.53c9.05,4.53,9.96,4.53,25.96,4.53,14.79,0,17.51-.3,24.15-3.62,13.58-6.04,25.35-5.73,31.09.6,2.11,2.41,4.53,2.72,18.71,2.72,18.11,0,25.35,1.51,31.99,6.64,11.77,9.05,17.2,22.94,14.49,38.33-1.81,10.87-7.24,18.71-15.39,22.94-5.43,3.02-8.15,3.32-28.07,3.32h-22.03l-8.15-8.15c-5.43-5.73-10.56-9.05-16.3-11.47l-8.45-3.32-186.52-.3c-133.4-.3-188.33,0-192.25,1.21-3.62.91-7.85,3.62-11.17,6.94l-5.43,5.43-4.53-3.62c-8.75-6.64-12.98-15.69-12.98-27.46,0-10.26,2.72-17.51,9.05-24.15,6.64-6.94,12.68-9.05,27.46-9.05q10.87,0,16.3-5.43c5.13-5.43,5.73-5.43,13.58-5.43,3.62.3,9.66,1.21,12.37,1.81Z"/>
        <path class="cls-1" d="M342.5,576.12c-3.62,3.62-3.92,9.05-1.21,12.68.91,1.21,6.34,3.92,11.77,5.73,5.43,1.81,12.68,5.43,16,8.15,8.15,6.64,13.28,9.05,22.94,10.56,14.49,2.11,25.35-.6,38.03-10.56,12.68-9.36,17.51-9.05,33.5,2.72,10.87,8.15,16.6,9.96,29.58,9.96,11.47,0,20.52-3.32,29.28-10.26,11.77-9.36,17.2-9.66,30.18-.6,12.37,8.45,19.32,11.47,29.28,12.37,11.47,1.21,21.43-1.81,33.2-10.87,9.05-6.64,9.96-6.94,16.3-6.34,5.13.3,8.45,1.81,14.19,6.34,20.22,15.69,43.16,16.9,60.36,3.32,8.15-6.64,10.87-7.85,16.9-9.05,10.56-1.81,13.58-11.47,5.43-18.11-7.24-6.34-19.92-3.62-36.52,7.85-12.68,8.75-17.2,8.75-28.67.3-12.68-9.36-19.32-12.37-29.58-12.98-11.47-.91-22.33,2.11-30.78,8.45-14.79,11.17-19.92,11.77-32.6,3.32-16.9-11.77-19.62-12.68-34.41-12.68s-17.2.91-30.48,10.87c-6.34,4.83-8.75,5.73-14.19,5.73s-7.55-.91-16.3-7.55c-11.47-8.45-19.32-11.17-31.39-11.17-11.17,0-17.51,1.81-25.35,7.55-3.62,2.72-8.15,6.04-10.26,7.24-6.34,4.53-13.58,3.32-24.15-4.23-12.98-9.36-19.62-12.07-29.58-12.07-7.24.3-9.05.6-11.47,3.32Z"/>
        <path class="cls-1" d="M796.72,674.82c-3.32,2.41-6.04,4.23-6.04,4.53,0,0-.6,6.64-1.21,14.49-.91,11.17-2.11,16-4.83,21.43-1.81,3.62-3.62,7.24-3.62,7.55s2.41.6,5.43.6c4.53,0,6.04-.91,9.96-5.43,6.04-7.24,8.45-16.3,8.45-33.2,0-7.85-.3-14.49-.91-14.49-.91.3-3.92,2.11-7.24,4.53Z"/>
        <path class="cls-1" d="M760.2,733.97l-6.34,6.34,26.56-.6c19.01-.3,27.46-.91,29.88-2.41,4.23-2.41,9.66-7.24,9.66-8.75,0-.6-12.07-1.21-26.86-1.21h-26.86l-6.04,6.64Z"/>
      </g>
    </g>
  </g>
</svg>