<?xml version="1.0" encoding="UTF-8"?>
<svg id="Warstwa_2" data-name="Warstwa 2" xmlns="http://www.w3.org/2000/svg" viewBox="0 0 1008.27 1384.06">
  <defs>
    <style>
      .cls-1 {
        fill: #fff;
        stroke: #1d1d1b;
        stroke-width: .75px;
      }

      .cls-1, .cls-2, .cls-3 {
        stroke-miterlimit: 10;
      }

      .cls-2 {
        fill: #f9b03a;
      }

      .cls-2, .cls-3 {
        stroke: #fff;
        stroke-width: 10px;
      }

      .cls-3 {
        fill: #e62b29;
      }
    </style>
  </defs>
  <g id="Livello_1" data-name="Livello 1">
    <g>
      <g>
        <path class="cls-3" d="M1003.27,504.13c0,142.39-59.63,270.86-155.28,361.79,0,0-.08.08-.25.24-9.33,9.29-277.85,278.15-333.55,499.04,0,0,0,.01,0,.02-8.93,30.49-19.65,1.27-20.09.04,0-.03-.01-.04-.01-.04-56.18-222.86-329-494.53-333.73-499.23-.02-.02-.03-.03-.05-.05-.01,0-.02-.02-.02-.02C64.63,774.99,5,646.52,5,504.13,5,228.47,228.47,5,504.13,5s499.13,223.47,499.13,499.13Z"/>
        <g>
          <path class="cls-1" d="M504.11,485.9c-67.41,0-127.81,40.18-153.89,102.37-2.92,6.96.36,14.99,7.33,17.9,1.72.72,3.52,1.06,5.28,1.06,5.35,0,10.43-3.15,12.63-8.39,21.8-52,72.3-85.6,128.66-85.6,7.55,0,13.67-6.13,13.67-13.67,0-7.55-6.13-13.66-13.67-13.66Z"/>
          <path class="cls-1" d="M833.51,574.73h0c-6.53-20.09-21.47-36.27-40.99-44.37-8.82-3.66-14.32-13.18-13.08-22.65,2.76-20.96-3.76-41.99-17.9-57.7-14.13-15.71-34.02-24.48-55.5-23.86-9.52.31-18.44-6.23-21.16-15.39-6.01-20.27-20.53-36.83-39.83-45.42-19.28-8.6-41.31-8.32-60.4.77-8.64,4.11-19.39,1.81-25.59-5.45-13.75-16.08-33.74-25.3-54.88-25.3h-.02c-21.12,0-41.12,9.22-54.85,25.28-6.21,7.25-16.97,9.54-25.6,5.43-19.07-9.11-41.07-9.4-60.4-.8-19.31,8.59-33.83,25.13-39.84,45.4-2.73,9.15-11.68,15.51-21.17,15.37-21.08-.59-41.38,8.14-55.51,23.84-14.14,15.7-20.67,36.73-17.93,57.7,1.24,9.46-4.26,18.99-13.08,22.63-19.53,8.09-34.48,24.26-41.02,44.36-12.08,37.15,7.74,77.07,44.25,90.22,1.9,1,4.03,1.62,6.33,1.62h73.04s411.44,0,411.44,0h73.06c1.32,0,2.58-.25,3.79-.6.14-.04.29-.03.43-.06.31-.1.6-.25.91-.35.09-.04.18-.06.26-.1,37.12-12.77,57.38-53.07,45.22-90.54ZM200.78,583.01c4.07-12.48,13.35-22.52,25.48-27.55,20.37-8.43,32.6-29.59,29.73-51.46-1.7-13.04,2.35-26.09,11.14-35.84,8.79-9.74,21.38-15.1,34.48-14.8,22.36.44,41.81-13.79,48.08-34.92,3.75-12.6,12.76-22.88,24.75-28.21,11.99-5.33,25.67-5.15,37.52.5,19.93,9.48,43.81,4.4,58.15-12.34,8.53-9.98,20.95-15.71,34.06-15.71h.02c13.12,0,25.54,5.73,34.07,15.72,14.31,16.76,38.21,21.87,58.14,12.37,11.85-5.64,25.52-5.82,37.51-.48,11.98,5.34,21,15.62,24.73,28.22,6.15,20.74,25.3,34.96,46.84,34.96.42,0,.84,0,1.25-.02,13.3-.36,25.69,5.07,34.47,14.81,8.78,9.75,12.83,22.83,11.12,35.85-2.87,21.85,9.34,43.03,29.71,51.48,12.13,5.04,21.41,15.08,25.47,27.55,7.42,22.89-4.6,47.51-26.91,55.88l-57.55-.02c-7.1-114.62-102.55-205.7-218.93-205.7-116.32,0-211.75,91.02-218.91,205.58l-57.53-.02c-22.31-8.34-34.33-32.97-26.89-55.85ZM312.56,638.92c7.09-99.48,90.3-178.25,191.54-178.25,101.29,0,184.53,78.82,191.56,178.35l-383.11-.1Z"/>
        </g>
      </g>
      <g>
        <path class="cls-2" d="M1003.27,504.13c0,142.39-59.63,270.86-155.28,361.79,0,0-.08.08-.25.24-9.33,9.29-277.85,278.15-333.55,499.04,0,0,0,.01,0,.02-8.93,30.49-19.65,1.27-20.09.04,0-.03-.01-.04-.01-.04-56.18-222.86-329-494.53-333.73-499.23-.02-.02-.03-.03-.05-.05-.01,0-.02-.02-.02-.02C64.63,774.99,5,646.52,5,504.13,5,228.47,228.47,5,504.13,5s499.13,223.47,499.13,499.13Z"/>
        <g>
          <path class="cls-1" d="M504.11,485.9c-67.41,0-127.81,40.18-153.89,102.37-2.92,6.96.36,14.99,7.33,17.9,1.72.72,3.52,1.06,5.28,1.06,5.35,0,10.43-3.15,12.63-8.39,21.8-52,72.3-85.6,128.66-85.6,7.55,0,13.67-6.13,13.67-13.67,0-7.55-6.13-13.66-13.67-13.66Z"/>
          <path class="cls-1" d="M833.51,574.73h0c-6.53-20.09-21.47-36.27-40.99-44.37-8.82-3.66-14.32-13.18-13.08-22.65,2.76-20.96-3.76-41.99-17.9-57.7-14.13-15.71-34.02-24.48-55.5-23.86-9.52.31-18.44-6.23-21.16-15.39-6.01-20.27-20.53-36.83-39.83-45.42-19.28-8.6-41.31-8.32-60.4.77-8.64,4.11-19.39,1.81-25.59-5.45-13.75-16.08-33.74-25.3-54.88-25.3h-.02c-21.12,0-41.12,9.22-54.85,25.28-6.21,7.25-16.97,9.54-25.6,5.43-19.07-9.11-41.07-9.4-60.4-.8-19.31,8.59-33.83,25.13-39.84,45.4-2.73,9.15-11.68,15.51-21.17,15.37-21.08-.59-41.38,8.14-55.51,23.84-14.14,15.7-20.67,36.73-17.93,57.7,1.24,9.46-4.26,18.99-13.08,22.63-19.53,8.09-34.48,24.26-41.02,44.36-12.08,37.15,7.74,77.07,44.25,90.22,1.9,1,4.03,1.62,6.33,1.62h73.04s411.44,0,411.44,0h73.06c1.32,0,2.58-.25,3.79-.6.14-.04.29-.03.43-.06.31-.1.6-.25.91-.35.09-.04.18-.06.26-.1,37.12-12.77,57.38-53.07,45.22-90.54ZM200.78,583.01c4.07-12.48,13.35-22.52,25.48-27.55,20.37-8.43,32.6-29.59,29.73-51.46-1.7-13.04,2.35-26.09,11.14-35.84,8.79-9.74,21.38-15.1,34.48-14.8,22.36.44,41.81-13.79,48.08-34.92,3.75-12.6,12.76-22.88,24.75-28.21,11.99-5.33,25.67-5.15,37.52.5,19.93,9.48,43.81,4.4,58.15-12.34,8.53-9.98,20.95-15.71,34.06-15.71h.02c13.12,0,25.54,5.73,34.07,15.72,14.31,16.76,38.21,21.87,58.14,12.37,11.85-5.64,25.52-5.82,37.51-.48,11.98,5.34,21,15.62,24.73,28.22,6.15,20.74,25.3,34.96,46.84,34.96.42,0,.84,0,1.25-.02,13.3-.36,25.69,5.07,34.47,14.81,8.78,9.75,12.83,22.83,11.12,35.85-2.87,21.85,9.34,43.03,29.71,51.48,12.13,5.04,21.41,15.08,25.47,27.55,7.42,22.89-4.6,47.51-26.91,55.88l-57.55-.02c-7.1-114.62-102.55-205.7-218.93-205.7-116.32,0-211.75,91.02-218.91,205.58l-57.53-.02c-22.31-8.34-34.33-32.97-26.89-55.85ZM312.56,638.92c7.09-99.48,90.3-178.25,191.54-178.25,101.29,0,184.53,78.82,191.56,178.35l-383.11-.1Z"/>
        </g>
      </g>
    </g>
  </g>
</svg>