<svg id="Warstwa_2" data-name="Warstwa 2" xmlns="http://www.w3.org/2000/svg" viewBox="0 0 1008.27 1405.21"><defs><style>.cls-1{fill:#fff;stroke:#1d1d1b;stroke-width:.75px;stroke-miterlimit:10}</style></defs><g id="Livello_1" data-name="Livello 1"><path d="M1003.27 525.27c0 142.39-59.63 270.86-155.28 361.79 0 0-.08.08-.25.24-9.33 9.29-277.85 278.15-333.55 499.04v.02c-8.93 30.49-19.65 1.27-20.09.04 0-.03-.01-.04-.01-.04-56.18-222.86-329-494.53-333.73-499.23l-.05-.05c-.01 0-.02-.02-.02-.02C64.63 796.14 5 667.67 5 525.27 5 249.61 228.47 26.14 504.13 26.14s499.13 223.47 499.13 499.13z" fill="#e62b29" stroke="#fff" stroke-width="10" stroke-miterlimit="10"/><path d="M1003.27 525.27c0 142.39-59.63 270.86-155.28 361.79 0 0-.08.08-.25.24-9.33 9.29-277.85 278.15-333.55 499.04v.02c-8.93 30.49-19.65 1.27-20.09.04 0-.03-.01-.04-.01-.04-56.18-222.86-329-494.53-333.73-499.23l-.05-.05c-.01 0-.02-.02-.02-.02C64.63 796.14 5 667.67 5 525.27 5 249.61 228.47 26.14 504.13 26.14s499.13 223.47 499.13 499.13z" stroke="#fff" stroke-width="10" fill="#f9b03a" stroke-miterlimit="10"/><path class="cls-1" d="M399.9 846.29v-45.35c-46.93-18.73-85.11-47.21-114.56-85.45-29.44-38.24-44.5-81.73-45.18-130.46h54.15V370.47l473.8-52.46v38.58l-303.23 33.84v47.72h303.23v38.58H464.88v108.3h303.23c-.45 48.73-15.45 92.22-45.01 130.46-29.56 38.24-67.8 66.73-114.73 85.45v45.35H399.9zm-1.35-408.14h27.75v-43.66l-27.75 3.38v40.27zm-65.66 0h27.75v-36.21l-27.75 2.9v33.31zm65.66 146.88h27.75v-108.3h-27.75v108.3zm-65.66 0h27.75v-108.3h-27.75v108.3z"/><path class="cls-1" d="M399.9 846.29v-45.35c-46.93-18.73-85.11-47.21-114.56-85.45-29.44-38.24-44.5-81.73-45.18-130.46h54.15V370.47l473.8-52.46v38.58l-303.23 33.84v47.72h303.23v38.58H464.88v108.3h303.23c-.45 48.73-15.45 92.22-45.01 130.46-29.56 38.24-67.8 66.73-114.73 85.45v45.35H399.9zm-1.35-408.14h27.75v-43.66l-27.75 3.38v40.27zm-65.66 0h27.75v-36.21l-27.75 2.9v33.31zm65.66 146.88h27.75v-108.3h-27.75v108.3zm-65.66 0h27.75v-108.3h-27.75v108.3z"/></g></svg>