<svg id="Warstwa_2" data-name="Warstwa 2" xmlns="http://www.w3.org/2000/svg" viewBox="0 0 1008.27 1384.06"><defs><style>.cls-1{fill:#fff;stroke:#000;stroke-width:.75px;stroke-miterlimit:10}</style></defs><g id="Livello_1" data-name="Livello 1"><path d="M1003.27 504.13c0 142.39-59.63 270.86-155.28 361.79 0 0-.08.08-.25.24-9.33 9.29-277.85 278.15-333.55 499.04v.02c-8.93 30.49-19.65 1.27-20.09.04 0-.03-.01-.04-.01-.04-56.18-222.86-329-494.53-333.73-499.23l-.05-.05c-.01 0-.02-.02-.02-.02C64.63 774.99 5 646.52 5 504.13 5 228.47 228.47 5 504.13 5s499.13 223.47 499.13 499.13z" fill="#e62b29" stroke="#fff" stroke-width="10" stroke-miterlimit="10"/><path class="cls-1" d="M226.34 590.75c0-45.22 19.26-81.08 57.77-107.58 38.51-26.5 82.43-39.75 131.76-39.75s93.25 13.25 131.76 39.75c38.51 26.5 57.77 62.36 57.77 107.58H226.34zm0 98.66v-49.33h379.05v49.33H226.34zm24.34 98.65c-6.71 0-12.44-2.38-17.2-7.14s-7.14-10.49-7.14-17.2v-24.99h379.05v24.99c0 6.71-2.38 12.44-7.14 17.2s-10.49 7.14-17.2 7.14H250.68zm403.38 0V590.75c0-46.73-16.17-86.97-48.52-120.72-32.34-33.75-71.77-56.25-118.29-67.5l-7.79-68.8h126.56V231.18h48.68v102.55h127.21L740.7 744.25c-1.3 12.55-6.49 22.99-15.58 31.32-9.09 8.33-19.9 12.49-32.45 12.49h-38.62z"/><path d="M1003.27 504.13c0 142.39-59.63 270.86-155.28 361.79 0 0-.08.08-.25.24-9.33 9.29-277.85 278.15-333.55 499.04v.02c-8.93 30.49-19.65 1.27-20.09.04 0-.03-.01-.04-.01-.04-56.18-222.86-329-494.53-333.73-499.23l-.05-.05c-.01 0-.02-.02-.02-.02C64.63 774.99 5 646.52 5 504.13 5 228.47 228.47 5 504.13 5s499.13 223.47 499.13 499.13z" stroke="#fff" stroke-width="10" fill="#f9b03a" stroke-miterlimit="10"/><path class="cls-1" d="M226.34 590.75c0-45.22 19.26-81.08 57.77-107.58 38.51-26.5 82.43-39.75 131.76-39.75s93.25 13.25 131.76 39.75c38.51 26.5 57.77 62.36 57.77 107.58H226.34zm0 98.66v-49.33h379.05v49.33H226.34zm24.34 98.65c-6.71 0-12.44-2.38-17.2-7.14s-7.14-10.49-7.14-17.2v-24.99h379.05v24.99c0 6.71-2.38 12.44-7.14 17.2s-10.49 7.14-17.2 7.14H250.68zm403.38 0V590.75c0-46.73-16.17-86.97-48.52-120.72-32.34-33.75-71.77-56.25-118.29-67.5l-7.79-68.8h126.56V231.18h48.68v102.55h127.21L740.7 744.25c-1.3 12.55-6.49 22.99-15.58 31.32-9.09 8.33-19.9 12.49-32.45 12.49h-38.62z"/></g></svg>