<svg id="Warstwa_2" data-name="Warstwa 2" xmlns="http://www.w3.org/2000/svg" viewBox="0 0 1008.27 1384.06"><defs><style>.cls-1{fill:#fff;stroke:#1d1d1b;stroke-width:.75px;stroke-miterlimit:10}</style></defs><g id="Livello_1" data-name="Livello 1"><path d="M1003.27 504.13c0 142.39-59.63 270.86-155.28 361.79 0 0-.08.08-.25.24-9.33 9.29-277.85 278.15-333.55 499.04v.02c-8.93 30.49-19.65 1.27-20.09.04 0-.03-.01-.04-.01-.04-56.18-222.86-329-494.53-333.73-499.23l-.05-.05c-.01 0-.02-.02-.02-.02C64.63 774.99 5 646.52 5 504.13 5 228.47 228.47 5 504.13 5s499.13 223.47 499.13 499.13z" fill="#e62b29" stroke="#fff" stroke-width="10" stroke-miterlimit="10"/><path class="cls-1" d="M505.2 880.13L374.97 629.67c-32.59 2.14-60.95-6.84-85.09-26.94s-36.21-47.51-36.21-82.24c0-23.31 6.78-44.48 20.34-63.51 13.56-19.03 31.04-32.35 52.45-39.96 8.33-42.58 29.08-77.6 62.26-105.07s71.65-41.21 115.42-41.21 82.24 13.74 115.42 41.21 53.93 62.5 62.26 105.07c21.41 7.61 38.89 20.93 52.45 39.96 13.56 19.03 20.34 40.2 20.34 63.51 0 34.73-12.37 62.14-37.11 82.24-24.74 20.1-52.33 29.08-82.77 26.94L505.22 880.13zm0-116.31l77.42-149.85-.71-.71c-11.42 5.71-23.79 9.99-37.11 12.84a192.186 192.186 0 01-40.32 4.28c-12.84 0-25.87-1.43-39.07-4.28-13.2-2.85-25.75-7.14-37.64-12.84l-.71.71 78.14 149.85z"/><path d="M1003.27 504.13c0 142.39-59.63 270.86-155.28 361.79 0 0-.08.08-.25.24-9.33 9.29-277.85 278.15-333.55 499.04v.02c-8.93 30.49-19.65 1.27-20.09.04 0-.03-.01-.04-.01-.04-56.18-222.86-329-494.53-333.73-499.23l-.05-.05c-.01 0-.02-.02-.02-.02C64.63 774.99 5 646.52 5 504.13 5 228.47 228.47 5 504.13 5s499.13 223.47 499.13 499.13z" stroke="#fff" stroke-width="10" fill="#f9b03a" stroke-miterlimit="10"/><path class="cls-1" d="M505.2 880.13L374.97 629.67c-32.59 2.14-60.95-6.84-85.09-26.94s-36.21-47.51-36.21-82.24c0-23.31 6.78-44.48 20.34-63.51 13.56-19.03 31.04-32.35 52.45-39.96 8.33-42.58 29.08-77.6 62.26-105.07s71.65-41.21 115.42-41.21 82.24 13.74 115.42 41.21 53.93 62.5 62.26 105.07c21.41 7.61 38.89 20.93 52.45 39.96 13.56 19.03 20.34 40.2 20.34 63.51 0 34.73-12.37 62.14-37.11 82.24-24.74 20.1-52.33 29.08-82.77 26.94L505.22 880.13zm0-116.31l77.42-149.85-.71-.71c-11.42 5.71-23.79 9.99-37.11 12.84a192.186 192.186 0 01-40.32 4.28c-12.84 0-25.87-1.43-39.07-4.28-13.2-2.85-25.75-7.14-37.64-12.84l-.71.71 78.14 149.85z"/></g></svg>