<svg id="Warstwa_2" data-name="Warstwa 2" xmlns="http://www.w3.org/2000/svg" viewBox="0 0 1008.27 1384.06"><defs><style>.cls-1{fill:#fff;stroke:#1d1d1b;stroke-width:.75px;stroke-miterlimit:10}</style></defs><g id="Livello_1" data-name="Livello 1"><path d="M1003.27 504.13c0 142.39-59.63 270.86-155.28 361.79 0 0-.08.08-.25.24-9.33 9.29-277.85 278.15-333.55 499.04v.02c-8.93 30.49-19.65 1.27-20.09.04 0-.03-.01-.04-.01-.04-56.18-222.86-329-494.53-333.73-499.23l-.05-.05c-.01 0-.02-.02-.02-.02C64.63 774.99 5 646.52 5 504.13 5 228.47 228.47 5 504.13 5s499.13 223.47 499.13 499.13z" fill="#e62b29" stroke="#fff" stroke-width="10" stroke-miterlimit="10"/><path d="M1003.27 504.13c0 142.39-59.63 270.86-155.28 361.79 0 0-.08.08-.25.24-9.33 9.29-277.85 278.15-333.55 499.04v.02c-8.93 30.49-19.65 1.27-20.09.04 0-.03-.01-.04-.01-.04-56.18-222.86-329-494.53-333.73-499.23l-.05-.05c-.01 0-.02-.02-.02-.02C64.63 774.99 5 646.52 5 504.13 5 228.47 228.47 5 504.13 5s499.13 223.47 499.13 499.13z" stroke="#fff" stroke-width="10" fill="#f9b03a" stroke-miterlimit="10"/><path class="cls-1" d="M382.91 810.7V582.91c-21.16-5.81-38.9-17.43-53.21-34.85-14.31-17.43-21.47-37.76-21.47-60.99V312.81h49.79v174.26h24.89V312.81h49.79v174.26h24.89V312.81h49.79v174.26c0 23.24-7.16 43.57-21.47 60.99-14.31 17.43-32.05 29.04-53.21 34.85V810.7h-49.79zm248.95 0V611.54h-74.68V437.28c0-34.44 12.14-63.79 36.41-88.07 24.27-24.27 53.63-36.41 88.07-36.41v497.9h-49.79z"/><path class="cls-1" d="M382.91 810.7V582.91c-21.16-5.81-38.9-17.43-53.21-34.85-14.31-17.43-21.47-37.76-21.47-60.99V312.81h49.79v174.26h24.89V312.81h49.79v174.26h24.89V312.81h49.79v174.26c0 23.24-7.16 43.57-21.47 60.99-14.31 17.43-32.05 29.04-53.21 34.85V810.7h-49.79zm248.95 0V611.54h-74.68V437.28c0-34.44 12.14-63.79 36.41-88.07 24.27-24.27 53.63-36.41 88.07-36.41v497.9h-49.79z"/></g></svg>