<svg data-name="Warstwa 2" xmlns="http://www.w3.org/2000/svg" viewBox="0 0 1014.27 1390.06"><path d="M1006.27 507.13c0 142.39-59.63 270.86-155.28 361.79 0 0-.08.08-.25.24-9.33 9.29-277.85 278.15-333.55 499.04v.02c-8.93 30.49-19.65 1.27-20.09.04 0-.03-.01-.04-.01-.04-56.18-222.86-329-494.53-333.73-499.23l-.05-.05c-.01 0-.02-.02-.02-.02C67.63 777.99 8 649.52 8 507.13 8 231.47 231.47 8 507.13 8s499.13 223.47 499.13 499.13z" fill="#f9b03a" stroke="#fff" stroke-miterlimit="10" stroke-width="16" data-name="Livello 1"/></svg>