<svg data-name="Warstwa 2" xmlns="http://www.w3.org/2000/svg" viewBox="0 0 1008.27 1384.06"><g data-name="Livello 1" stroke-miterlimit="10"><path d="M1003.27 504.13c0 142.39-59.63 270.86-155.28 361.79 0 0-.08.08-.25.24-9.33 9.29-277.85 278.15-333.55 499.04v.02c-8.93 30.49-19.65 1.27-20.09.04 0-.03-.01-.04-.01-.04-56.18-222.86-329-494.53-333.73-499.23l-.05-.05c-.01 0-.02-.02-.02-.02C64.63 774.99 5 646.52 5 504.13 5 228.47 228.47 5 504.13 5s499.13 223.47 499.13 499.13z" fill="#e62b29" stroke="#fff" stroke-width="10"/><path d="M399.9 825.15V779.8c-46.93-18.73-85.11-47.21-114.56-85.45-29.44-38.24-44.5-81.73-45.18-130.46h54.15V349.33l473.8-52.46v38.58l-303.23 33.84v47.72h303.23v38.58H464.88v108.3h303.23c-.45 48.73-15.45 92.22-45.01 130.46-29.56 38.24-67.8 66.73-114.73 85.45v45.35H399.9zm-1.35-408.14h27.75v-43.66l-27.75 3.38V417zm-65.66 0h27.75V380.8l-27.75 2.9v33.31zm65.66 146.87h27.75v-108.3h-27.75v108.3zm-65.66 0h27.75v-108.3h-27.75v108.3z" fill="#fff" stroke="#1d1d1b" stroke-width=".75"/></g></svg>