<svg data-name="Warstwa 2" xmlns="http://www.w3.org/2000/svg" viewBox="0 0 1008.27 1384.06"><g stroke-miterlimit="10" data-name="Livello 1"><path d="M1003.27 504.13c0 142.39-59.63 270.86-155.28 361.79 0 0-.08.08-.25.24-9.33 9.29-277.85 278.15-333.55 499.04v.02c-8.93 30.49-19.65 1.27-20.09.04 0-.03-.01-.04-.01-.04-56.18-222.86-329-494.53-333.73-499.23l-.05-.05c-.01 0-.02-.02-.02-.02C64.63 774.99 5 646.52 5 504.13 5 228.47 228.47 5 504.13 5s499.13 223.47 499.13 499.13z" fill="#e62b29" stroke="#fff" stroke-width="10"/><path d="M504.13 875.93L189.21 403.54c44.61-37.79 93.56-68.23 146.83-91.33 53.27-23.09 109.31-34.64 168.09-34.64s114.82 11.42 168.09 34.25c53.28 22.83 102.22 53.41 146.83 91.72L504.12 875.93zm0-113.37l229.9-344.84c-34.12-23.62-70.6-42.38-109.44-56.29s-78.99-20.86-120.46-20.86-81.49 6.95-120.07 20.86-75.19 32.67-109.83 56.29l229.9 344.84zM425.4 498.02c13.12 0 24.28-4.59 33.46-13.78s13.78-20.34 13.78-33.46-4.59-24.28-13.78-33.46c-9.19-9.19-20.34-13.78-33.46-13.78s-24.28 4.59-33.46 13.78-13.78 20.34-13.78 33.46 4.59 24.28 13.78 33.46 20.34 13.78 33.46 13.78zm78.73 157.47c13.12 0 24.28-4.59 33.46-13.78 9.19-9.19 13.78-20.34 13.78-33.46s-4.59-24.28-13.78-33.46c-9.19-9.19-20.34-13.78-33.46-13.78s-24.28 4.59-33.46 13.78c-9.19 9.19-13.78 20.34-13.78 33.46s4.59 24.28 13.78 33.46c9.19 9.19 20.34 13.78 33.46 13.78z" fill="#fff" stroke="#1d1d1b" stroke-width=".75"/></g></svg>