<?xml version="1.0" encoding="UTF-8"?>
<svg id="Warstwa_2" data-name="Warstwa 2" xmlns="http://www.w3.org/2000/svg" viewBox="0 0 1008.27 1384.06">
  <defs>
    <style>
      .cls-1 {
        fill: #fff;
        stroke: #1d1d1b;
        stroke-width: .75px;
      }

      .cls-1, .cls-2 {
        stroke-miterlimit: 10;
      }

      .cls-2 {
        fill: #e62b29;
        stroke: #fff;
        stroke-width: 10px;
      }
    </style>
  </defs>
  <g id="Livello_1" data-name="Livello 1">
    <g>
      <path class="cls-2" d="M1003.27,504.13c0,142.39-59.63,270.86-155.28,361.79,0,0-.08.08-.25.24-9.33,9.29-277.85,278.15-333.55,499.04,0,0,0,.01,0,.02-8.93,30.49-19.65,1.27-20.09.04,0-.03-.01-.04-.01-.04-56.18-222.86-329-494.53-333.73-499.23-.02-.02-.03-.03-.05-.05-.01,0-.02-.02-.02-.02C64.63,774.99,5,646.52,5,504.13,5,228.47,228.47,5,504.13,5s499.13,223.47,499.13,499.13Z"/>
      <path class="cls-1" d="M504.13,236.37v32.82c4.25-.11,8.51-.2,12.76-.2s8.51.09,12.76.2v-32.82h-25.53ZM516.9,294.52c-55.03,0-104.81,11.09-140.12,24.68-17.59,6.79-31.63,14.27-40.7,20.76-7.94,5.77-10.07,10.96-10.5,10.13l9.79,64.98c35.88,9.36,68.5,8.79,100.27,2.69l4.82,24.96c-31.63,6.24-65.1,7.37-100.98-.43l32.05,213.73c17.59,7.09,40.7,8.51,60.56,8.94l-.57,25.53c-16.17-.28-36.31-.85-55.74-6.1l4.11,27.66c6.81,2.98,19.71,6.81,32.34,8.94,16.17,2.55,33.75,3.12,37.87,2.55l3.69,25.24c-11.49,1.7-27.8.28-45.67-2.69-8.23-1.28-16.31-2.69-23.83-4.82l8.65,57.44c2.98,4.11,17.3,12.91,39.57,18.01,23.4,5.39,53.89,8.23,84.39,8.23s60.99-2.84,84.39-8.23c22.27-5.11,36.59-13.9,39.57-18.01l4.96-32.9c-9.5,3.55-19.57,6.24-29.64,8.08-22.69,4.25-44.82,4.82-60.99,1.56l4.82-24.96c10.78,1.99,31.63,1.99,51.48-1.7,14.61-2.69,28.79-7.66,38.86-13.62l24.39-162.25c-68.36,24.54-117.43,21.7-164.52,20.71l.57-25.53c51.06,1.13,97.01,4.54,168.35-23.97l23.12-154.45c-58.15,28.93-134.17,29.5-199.41,23.83l2.27-25.53c70.35,6.38,151.33,2.69,201.96-30.49l1.13-7.4c-.43.84-2.55-4.35-10.5-10.13-9.08-6.5-23.12-13.97-40.7-20.76-35.31-13.59-85.1-24.68-140.12-24.68h0ZM408.83,500.17c8.37,1.99,32.05,3.97,56.16,4.4,24.11.28,49.92-.71,64.53-3.12l3.97,25.24c-17.87,2.84-43.82,3.69-68.79,3.4-25.1-.43-47.94-1.7-61.84-4.96l5.96-24.96h0ZM616.6,648.09l3.97,12.2,3.97,12.2c-41.55,13.47-96.58,17.3-135.87,9.5l2.41-12.48,2.41-12.48c33.05,6.38,86.94,2.84,123.1-8.94h0ZM504.13,850.34v66.8h25.53v-66.8c-4.25.14-8.51.14-12.76.14s-8.51,0-12.76-.14Z"/>
    </g>
  </g>
</svg>