<?xml version="1.0" encoding="UTF-8"?>
<svg id="Warstwa_2" data-name="Warstwa 2" xmlns="http://www.w3.org/2000/svg" viewBox="0 0 1008.27 1384.06">
  <defs>
    <style>
      .cls-1 {
        fill: #fff;
        stroke: #1d1d1b;
        stroke-width: .75px;
      }

      .cls-1, .cls-2 {
        stroke-miterlimit: 10;
      }

      .cls-2 {
        fill: #e62b29;
        stroke: #fff;
        stroke-width: 10px;
      }
    </style>
  </defs>
  <g id="Livello_1" data-name="Livello 1">
    <g>
      <path class="cls-2" d="M1003.27,504.13c0,142.39-59.63,270.86-155.28,361.79,0,0-.08.08-.25.24-9.33,9.29-277.85,278.15-333.55,499.04,0,0,0,.01,0,.02-8.93,30.49-19.65,1.27-20.09.04,0-.03-.01-.04-.01-.04-56.18-222.86-329-494.53-333.73-499.23-.02-.02-.03-.03-.05-.05-.01,0-.02-.02-.02-.02C64.63,774.99,5,646.52,5,504.13,5,228.47,228.47,5,504.13,5s499.13,223.47,499.13,499.13Z"/>
      <g id="Layer_2" data-name="Layer 2">
        <path class="cls-1" d="M626.99,386.13c5.45,7.74,10.9,18.64,11.47,32.98,10.32,3.44,22.65,9.46,35.27,20.65,8.03,7.17,12.62,16.06,14.34,25.81,2.87-.29,5.74-.57,8.32-.57,20.07,0,36.7,10.04,45.31,27.53,11.76,23.23,4.3,46.17-8.89,64.23,9.18,6.88,17.78,16.34,24.37,29.25,21.51,43.3,16.34,54.2-20.36,90.61l-1.15,1.15c12.04,14.91,32.12,15.77,61.65,15.77,5.74,0,20.65-1.72,32.12-16.63,11.18-14.91,20.93-45.59,2.87-108.11-20.65-75.42-102.94-154.85-205.32-182.66Z"/>
        <path class="cls-1" d="M735.67,596.89c-13.48-26.67-38.14-30.4-45.02-30.97h-1.72s.57-.29,1.43-.86c7.17-5.16,43.87-32.98,29.82-61.37-5.16-10.61-14.05-14.05-23.51-14.05-15.77,0-33.26,10.04-37.85,12.62-.86.57-1.15.86-1.15.86,0,0,.29-.57.86-1.72,2.87-6.6,12.62-31.54-.86-43.3-17.78-15.48-32.98-18.07-41.01-18.07h-.57c-3.44,0-5.45.57-5.45.57.57-1.72.86-3.44,1.43-5.16,10.61-42.73-33.26-57.35-48.17-57.35-6.31,0-15.2,1.15-23.23,2.87-9.46,1.72-18.35,3.73-21.79,4.59-.86.29-1.72.29-1.72.29v-.86c0-2.29-.86-9.75-4.01-19.21-1.15-3.73-2.87-7.46-5.16-11.47-8.03-14.91-23.51-31.26-53.34-38.71-6.88-1.72-13.76-2.58-20.07-2.58-51.9,0-88.89,49.32-88.89,49.32-18.07-10.9-33.55-14.91-46.74-14.91-43.87,0-62.51,46.17-62.51,46.17-5.74-1.43-10.61-2.01-14.91-2.01-42.15,0-16.34,64.52-16.34,64.52-72.84,29.25-23.23,71.69-16.34,77.42,35.84-67.67,100.94-127.32,219.08-130.47,1.43,0,3.73-.29,6.02-.57,3.73-.29,7.74-.57,9.75-.57,137.93,0,227.4,142.52,270.41,233.7,1.43,2.87,2.58,5.74,4.01,8.6,1.72,3.73,4.3,7.74,7.17,11.47l9.18,2.01,5.74,1.43,5.74-5.74c25.52-25.52,24.37-27.53,9.75-56.49Z"/>
        <path class="cls-1" d="M680.32,662.27c-1.72-2.58-3.15-5.45-4.3-8.03-.86-2.01-2.01-4.01-2.87-6.31-40.15-85.74-123.59-221.66-249.19-221.66-1.72,0-4.59.29-7.46.57-3.15.29-6.02.57-7.74.57-102.66,2.87-161.16,53.34-194.42,112.41-2.01,3.73-4.01,7.46-6.02,11.18-2.01,3.73-3.73,7.46-5.45,11.47-20.36,45.59-28.1,93.2-30.68,126.46h530.5c-3.44-3.44-7.17-7.17-10.32-11.18-4.87-4.87-8.89-10.04-12.04-15.48ZM423.68,526.35c0-12.9,10.61-23.51,23.51-23.51s23.51,10.61,23.51,23.51-10.61,23.51-23.51,23.51-23.51-10.61-23.51-23.51ZM501.68,620.4c0,4.3-1.43,8.32-3.44,11.76-4.01,6.88-11.47,11.18-20.07,11.18-12.33,0-22.08-9.46-23.23-21.51,0-.57-.29-1.43-.29-2.01,0-3.73.86-7.17,2.29-10.04,2.01-4.3,5.74-8.03,9.75-10.32,3.44-1.72,7.17-2.87,11.18-2.87,8.03,0,14.91,4.01,19.21,10.04,3.15,4.01,4.59,8.6,4.59,13.76,0-.29,0,0,0,0ZM525.19,581.12c-12.9,0-23.51-10.61-23.51-23.51s10.61-23.51,23.51-23.51,23.51,10.61,23.51,23.51-10.61,23.51-23.51,23.51Z"/>
      </g>
    </g>
  </g>
</svg>